<?xml version="1.0" encoding="UTF-8"?>
<svg width="32px" height="32px" viewBox="0 0 32 32" version="1.1" xmlns="http://www.w3.org/2000/svg" xmlns:xlink="http://www.w3.org/1999/xlink">
    <title>编组 10备份_Slice</title>
    <g id="页面-1" stroke="none" stroke-width="1" fill="none" fill-rule="evenodd">
        <g id="b1.3" transform="translate(-180.000000, -373.000000)">
            <g id="矩形" transform="translate(168.000000, 365.000000)">
                <g id="编组-10备份" transform="translate(12.000000, 8.000000)">
                    <circle id="椭圆形" stroke="#00AB7A" fill="#D9F4EE" cx="16" cy="16" r="15.5"></circle>
                    <path d="M15.4264466,10.3504334 C15.2787101,10.597721 15.2,10.8811749 15.2,11.171016 L15.2,12.7992 L8.8,12.8 L8.8,19.2 L15.2,19.1992 L15.2,20.828984 L15.2067101,20.9683553 C15.3040297,21.8179071 15.9856409,22.428984 16.8,22.428984 C17.138148,22.428984 17.4676022,22.3218508 17.7410747,22.1229617 L24.3809277,17.2939777 L24.497623,17.1994985 C25.12096,16.6170905 25.2097239,15.7132785 24.7338307,15.0589253 C24.63538,14.9235556 24.5162973,14.8044729 24.3809277,14.7060223 L17.7410747,9.8770383 L17.615237,9.79512991 L17.5722683,9.76963364 C16.8691072,9.38156197 15.9819155,9.57558813 15.5060223,10.2299413 L15.4264466,10.3504334 Z M23.4006484,16.0304151 L16.8000276,20.8290186 L16.7986721,20.7829095 L16.8,17.6 L10.4,17.5992 L10.4,14.3992 L16.8,14.4 L16.8,11.1728 L16.8410147,11.1989422 L23.4406443,15.9993736 L23.4006484,16.0304151 Z" id="形状结合" fill="#00AB7A" fill-rule="nonzero"></path>
                </g>
            </g>
        </g>
    </g>
</svg>