<?xml version="1.0" encoding="UTF-8"?>
<svg width="32px" height="32px" viewBox="0 0 32 32" version="1.1" xmlns="http://www.w3.org/2000/svg" xmlns:xlink="http://www.w3.org/1999/xlink">
    <title>编组 10备份_Slice</title>
    <g id="页面-1" stroke="none" stroke-width="1" fill="none" fill-rule="evenodd">
        <g id="b1.3" transform="translate(-568.000000, -373.000000)">
            <g id="矩形备份-2" transform="translate(556.000000, 365.000000)">
                <g id="编组-10备份" transform="translate(12.000000, 8.000000)">
                    <circle id="椭圆形备份-2" stroke="#00AB7A" fill="#D9F4EE" cx="16" cy="16" r="15.5"></circle>
                    <g id="1.通用/图标/32.处置管理" transform="translate(8.800000, 8.000000)" fill="#00AB7A" fill-rule="nonzero">
                        <path d="M12.0952381,-0.24 C13.0311379,-0.24 13.8108168,0.458299755 13.9369777,1.38075854 L13.950084,1.50789326 L13.9542857,1.63265306 L13.9542857,5.15696599 L12.3314286,5.15696599 L12.3314286,1.63265306 C12.3314286,1.52760211 12.2701316,1.4379686 12.194166,1.4021666 L12.1471995,1.3874525 L12.0952381,1.38285714 L1.61904762,1.38285714 C1.52285266,1.38285714 1.437087,1.44497004 1.40205531,1.5262756 L1.38744681,1.5770187 L1.38285714,1.63265306 L1.38285714,14.3673469 C1.38285714,14.4723979 1.44415407,14.5620314 1.52011968,14.5978334 L1.56708626,14.6125475 L1.61904762,14.6171429 L12.0952381,14.6171429 C12.1914331,14.6171429 12.2771987,14.55503 12.3122304,14.4737244 L12.3268389,14.4229813 L12.3314286,14.3673469 L12.3314286,10.8207922 L13.9542857,10.8207922 L13.9542857,14.3673469 C13.9542857,15.3080071 13.2629455,16.094963 12.3459669,16.2224863 L12.2195695,16.235741 L12.0952381,16.24 L1.61904762,16.24 C0.68314782,16.24 -0.0965311093,15.5417002 -0.222691977,14.6192415 L-0.235798296,14.4921067 L-0.24,14.3673469 L-0.24,1.63265306 C-0.24,0.691992897 0.451340211,-0.0949629641 1.36831882,-0.222486318 L1.49471621,-0.235740979 L1.61904762,-0.24 L12.0952381,-0.24 Z M8.46857143,6.16 L8.46857143,7.55428571 L3.41714286,7.55428571 L3.41714286,6.16 L8.46857143,6.16 Z M10.2971429,3.41714286 L10.2971429,4.81142857 L3.41714286,4.81142857 L3.41714286,3.41714286 L10.2971429,3.41714286 Z" id="形状结合"></path>
                        <polygon id="路径-3" points="13.1486003 5.83431458 14.2799711 6.96568542 7.87997114 13.3656854 6.74860029 12.2343146"></polygon>
                    </g>
                </g>
            </g>
        </g>
    </g>
</svg>